PathFileType	3	(X/Y/Z)	RCH0000001 BBF 02.c3d
DataRate	CameraRate	NumFrames	NumMarkers	Units	OrigDataRate	OrigDataStartFrame	OrigNumFrames
100.0	100.0	5	23	mm	100.0	96	68
Frame#	Time	T2			T10			MAN			LASI			RASI			LPSI			RPSI			LPAT			LANK			LMED			LHEE			LTOE			RPAT			RANK			RMED			RHEE			RTOE			RTHI			LTHI			RTIB			LTIB			LKNE			RKNE			
		X1	Y1	Z1	X2	Y2	Z2	X3	Y3	Z3	X4	Y4	Z4	X5	Y5	Z5	X6	Y6	Z6	X7	Y7	Z7	X8	Y8	Z8	X9	Y9	Z9	X10	Y10	Z10	X11	Y11	Z11	X12	Y12	Z12	X13	Y13	Z13	X14	Y14	Z14	X15	Y15	Z15	X16	Y16	Z16	X17	Y17	Z17	X18	Y18	Z18	X19	Y19	Z19	X20	Y20	Z20	X21	Y21	Z21	X22	Y22	Z22	X23	Y23	Z23	

96	0.950	531.07684	33.40918	1207.06445	498.84219	32.30875	999.14594	657.59845	29.88880	1159.94824	590.74615	135.40927	820.00873	583.73138	-93.69099	825.45740	464.50638	59.64410	892.36078	460.66367	-12.86383	889.12720	565.56372	101.77630	473.11502	502.55646	170.24483	137.12819	523.31818	96.22180	137.39491	458.56091	131.06746	122.94910	557.69336	159.39732	137.18971	596.00647	-47.22279	489.41650	492.38727	-106.58613	139.52423	518.91956	-35.32352	136.91588	454.44788	-63.33796	128.38348	552.21216	-99.04741	137.64062	535.51202	-170.17999	580.88000	499.96600	223.63600	608.74200	479.53201	-166.57899	316.27701	478.38000	229.65800	315.98199	496.02832	165.47575	450.58673	531.36700	-105.94182	455.97855	
97	0.960	531.02588	33.43152	1206.96460	498.91248	32.29931	999.10559	657.42371	29.88114	1159.86035	590.80469	135.36417	819.98236	583.81653	-93.74136	825.44403	464.57751	59.57719	892.35394	460.74832	-12.93375	889.12292	565.60999	101.74086	473.10208	502.55746	170.23907	137.13181	523.32288	96.21704	137.39072	458.56067	131.06219	122.95107	557.69403	159.39241	137.19017	596.08502	-47.25687	489.40979	492.39288	-106.59061	139.52545	518.92340	-35.32686	136.91821	454.45541	-63.33794	128.38959	552.21625	-99.04964	137.63950	535.60101	-170.22600	580.86902	500.01700	223.58900	608.74500	479.58701	-166.60300	316.27600	478.39700	229.63300	315.99399	496.06720	165.44060	450.58899	531.44312	-105.97455	455.97495	
98	0.970	530.97675	33.44838	1206.86426	498.98352	32.28711	999.06586	657.25311	29.86838	1159.77234	590.86237	135.31958	819.95642	583.90192	-93.79134	825.42993	464.64838	59.51040	892.34692	460.83282	-13.00387	889.11829	565.65619	101.70591	473.08932	502.55844	170.23335	137.13544	523.32758	96.21232	137.38654	458.56055	131.05693	122.95305	557.69476	159.38741	137.19063	596.16327	-47.29016	489.40302	492.39853	-106.59500	139.52660	518.92719	-35.33009	136.92038	454.46259	-63.33835	128.39554	552.22034	-99.05177	137.63832	535.69098	-170.27200	580.85797	500.06598	223.54300	608.74701	479.64099	-166.62601	316.27399	478.41599	229.60899	316.00601	496.10590	165.40569	450.59116	531.51898	-106.00683	455.97113	
99	0.980	530.92950	33.45977	1206.76343	499.05539	32.27212	999.02679	657.08667	29.85053	1159.68433	590.91919	135.27551	819.93079	583.98755	-93.84090	825.41504	464.71893	59.44371	892.33984	460.91714	-13.07420	889.11340	565.70227	101.67145	473.07669	502.55939	170.22769	137.13907	523.33228	96.20764	137.38239	458.56052	131.05164	122.95502	557.69556	159.38231	137.19106	596.24109	-47.32267	489.39615	492.40411	-106.59930	139.52768	518.93097	-35.33320	136.92238	454.46942	-63.33920	128.40138	552.22437	-99.05377	137.63710	535.78198	-170.31700	580.84802	500.11600	223.49699	608.74902	479.69501	-166.64900	316.27200	478.43399	229.58501	316.01901	496.14453	165.37105	450.59326	531.59467	-106.03872	455.96704	
100	0.990	530.88416	33.46569	1206.66211	499.12805	32.25436	998.98840	656.92438	29.82760	1159.59619	590.97522	135.23199	819.90552	584.07343	-93.89005	825.39941	464.78922	59.37714	892.33264	461.00134	-13.14473	889.10809	565.74823	101.63747	473.06421	502.56036	170.22206	137.14273	523.33704	96.20301	137.37825	458.56058	131.04636	122.95699	557.69635	159.37712	137.19148	596.31854	-47.35439	489.38925	492.40970	-106.60349	139.52867	518.93463	-35.33620	136.92422	454.47589	-63.34046	128.40709	552.22839	-99.05566	137.63585	535.87097	-170.36099	580.83600	500.16397	223.45200	608.75098	479.74899	-166.67200	316.26999	478.45200	229.56100	316.03101	496.18307	165.33662	450.59528	531.67023	-106.07012	455.96277	
